<svg version="1.2" xmlns="http://www.w3.org/2000/svg" viewBox="0 0 15 15" width="15" height="15">
<path d="m14.4 4.6q-0.2-0.6-0.6-1.2-0.4-0.6-0.9-1.1-0.5-0.4-1-0.8-0.6-0.4-1.2-0.7-0.7-0.2-1.4-0.4-0.7-0.1-1.4-0.1-0.7 
0-1.4 0.1-0.7 0.2-1.4 0.4-0.6 0.3-1.2 0.7-0.5 0.4-1 0.8-0.5 0.5-0.9 1.1-0.4 0.6-0.6 1.2-0.3 0.6-0.5 1.3-0.1 0.7-0.1 
1.4 0 0.8 0.1 1.5 0.2 0.6 0.5 1.3 0.2 0.6 0.6 1.2 0.4 0.6 0.9 1 0.5 0.5 1 0.9 0.6 0.4 1.2 0.6 0.7 0.3 1.4 0.5 0.7 
0.1 1.4 0.1 0.7 0 1.4-0.1 0.7-0.2 1.4-0.5 0.6-0.2 1.2-0.6 0.5-0.4 1-0.9 0.5-0.4 0.9-1 0.4-0.6 0.6-1.2 0.3-0.7 
0.4-1.3 0.2-0.7 0.2-1.5 0-0.7-0.2-1.4-0.1-0.7-0.4-1.3zm-6.5-3.3c1.5 0 2.9 0.6 4 1.5 0 0-0.9 1.3-3.2 
2.2-1-1.9-2.1-3.4-2.2-3.5q0.7-0.2 1.4-0.2zm-1.5 0.2q0 0 0 0 0 0 0 0zm-1.1 0.4c0.1 0.1 1.2 1.6 2.3 3.5-2.9 0.7-5.5 
0.7-5.6 0.7 0.4-1.9 1.6-3.4 3.3-4.2zm-1.9 9.5q0 0 0 0 0 0 0 0zm0 0c-1-1.1-1.6-2.5-1.6-4.1q0-0.1 0-0.1c0.2 0 3.1 0 
6.3-0.9q0.2 0.5 0.5 1-0.2 0.1-0.3 0.1c-3.3 1-4.9 4-4.9 4zm0.8 0.7q0 0-0.2-0.1 0.1 0 0.2 0.1zm3.7 1.3c-1.4 
0-2.7-0.5-3.7-1.3 0-0.1 1.2-2.6 4.7-3.8q0 0 0.1 0c0.8 2.2 1.2 4.1 1.3 4.6q-1.1 0.5-2.4 
0.5zm3.4-1.1c-0.1-0.3-0.4-2.1-1.2-4.3 2-0.3 3.7 0.2 3.8 0.3-0.3 1.7-1.3 3.1-2.6 
4zm-1.6-5.2q0-0.2-0.1-0.3-0.2-0.5-0.4-0.9c2.4-1 3.4-2.4 3.4-2.4 0.8 1 1.3 2.3 1.4 3.8-0.1 0-2.2-0.5-4.3-0.2z"/>
</svg>