<svg version="1.2" xmlns="http://www.w3.org/2000/svg" viewBox="0 0 14 15" width="14" height="15">
<path d="m8 1.4h-1.1c0.8 0.5 1.2 1.4 1.2 
2.4 0 0.9-0.5 1.6-1.3 2.2-0.7 0.5-0.8 0.8-0.8 1.2 0 0.4 0.9 1 1.2 1.3 1.4 1 1.7 1.7 1.7 2.9 0 1.6-1.7 
3.2-4.5 3.2-2.4 0-4.5-1-4.5-2.6 0-1.6 1.7-3.3 4.1-3.3q0.4 0 0.8 0c-0.3-0.3-0.6-0.6-0.6-1.1q0-0.4 0.2-0.8-0.2 
0.1-0.4 0.1c-2 0-3.1-1.4-3.1-3.2 0-1.7 1.7-3.3 3.8-3.3h4.2zm-2.3 8q-0.5-0.1-1.1-0.1c-1.7-0.1-3.1 1-3.1 2.3 0 
1.2 1.2 2.3 2.9 2.3 2.4 0 3.2-1 3.2-2.3q0-0.2-0.1-0.4c-0.1-0.7-0.9-1.1-1.8-1.8zm0.7-5.5c-0.2-1.5-1.1-2.7-2.2-2.8-1.2 
0-1.9 1.1-1.7 2.6 0.2 1.5 1.2 2.5 2.4 2.5 1.1 0.1 1.7-0.9 
1.5-2.3zm7.7-1.3v0.9h-1.9v2h-1v-2h-1.9v-0.9h1.9v-1.9h1v1.9z"/>
</svg>